<svg version="1" viewBox="0 0 100 100" xmlns="http://www.w3.org/2000/svg">
	<rect width="100" height="100" rx="8" ry="8" fill="#528ff9" fill-rule="evenodd"/>
	<g fill="#f9f9f9">
		<path d="m13.368 6.7863v42.737c0 12.65 9.2191 22.474 17.364 29.764a124.79 124.79 0 0016.216 12.211l3.0527 1.7156 3.2419-1.9049s7.9064-4.8721 16.027-12.211c8.1262-7.3508 17.364-17.095 17.364-29.574v-42.737zm12.211 12.211h48.843v30.527c0 5.6169-6.026 14.152-13.163 20.606-5.5314 5.0003-9.0359 6.954-11.258 8.3949-2.1613-1.3554-5.6719-3.2053-11.258-8.2056-7.1188-6.3679-13.163-14.812-13.163-20.795z" overflow="visible"/>
		<path d="m31.684 25.102v24.422c0 2.1796 4.6091 10.02 11.258 16.027 3.5106 3.1748 4.4943 3.5407 7.0586 5.3418 2.5642-1.795 3.548-2.167 7.0586-5.3418 6.6548-6.0077 11.258-13.848 11.258-16.027v-24.422h-36.633zm28.068 6.6035.89258 2.2129 2.8125 7.1113.48633 1.3633-8.375 6.0898c-.10507 2.7204-1.1563 5.4196-3.5312 7.1465-4.1179 2.9943-9.9374 2.075-12.932-2.043-2.9943-4.1179-2.075-9.9374 2.043-12.932 2.3749-1.7269 5.2665-1.895 7.8867-1.1562l10.717-7.793zm-1.6602 5.7852-8.2832 6.0234-1.0117-.41016c-1.7715-.78354-3.7996-.6702-5.4707.54492-2.4992 1.8172-3.0438 5.2605-1.2266 7.7598 1.8172 2.4992 5.2606 3.0419 7.7598 1.2246 1.6711-1.2151 2.4039-3.1094 2.2031-5.0352l-.078125-1.0879 7.4902-5.4473-1.3828-3.5723zm-12.996 9.8887a1.8514 1.8514 0 011.4961.76172 1.8514 1.8514 0 11-2.9941 2.1777 1.8514 1.8514 0 011.498-2.9395z"/>
	</g>
</svg>
