<?xml version="1.0" standalone="no"?>
<!DOCTYPE svg PUBLIC "-//W3C//DTD SVG 20010904//EN"
 "http://www.w3.org/TR/2001/REC-SVG-20010904/DTD/svg10.dtd">
<svg version="1.0" xmlns="http://www.w3.org/2000/svg"
 width="700.000000pt" height="700.000000pt" viewBox="0 0 700.000000 700.000000"
 preserveAspectRatio="xMidYMid meet">
<metadata>
Created by potrace 1.11, written by Peter Selinger 2001-2013
</metadata>
<g transform="translate(0.000000,700.000000) scale(0.100000,-0.100000)"
fill="#000000" stroke="none">
<path d="M936 6520 c-1 -3 -2 -702 -1 -1555 1 -1367 4 -1613 21 -1700 2 -11 6
-36 9 -55 6 -49 49 -211 79 -299 102 -295 301 -618 576 -934 63 -71 385 -395
470 -472 306 -276 673 -563 1018 -792 174 -116 220 -144 337 -204 l61 -31 151
90 c84 50 182 112 220 138 127 88 228 158 238 166 6 5 80 61 165 125 328 247
585 469 864 749 125 124 202 206 271 289 22 27 45 53 50 59 85 87 279 374 360
531 93 178 175 398 200 535 40 219 40 225 40 1826 l0 1539 -2563 0 c-1410 0
-2565 -2 -2566 -5z m4274 -1958 l-1 -1109 -24 -94 c-14 -52 -29 -102 -35 -111
-5 -10 -10 -23 -10 -28 0 -19 -81 -181 -140 -281 -142 -240 -313 -453 -555
-694 -257 -256 -478 -437 -758 -620 -72 -48 -144 -95 -158 -105 l-26 -18 -103
64 c-56 35 -104 64 -105 64 -2 0 -27 17 -57 38 -30 20 -84 57 -119 81 -73 51
-230 176 -334 265 -526 456 -903 986 -980 1379 -11 59 -14 273 -14 1175 l-1
1102 1710 0 1710 0 0 -1108z"/>
<path d="M2223 5237 c-3 -5 -5 -397 -5 -870 l0 -862 22 -65 c57 -163 230 -437
429 -675 148 -178 453 -468 596 -566 28 -19 52 -36 55 -39 3 -3 44 -31 92 -63
l87 -58 108 72 c180 120 283 202 441 354 104 99 171 169 223 230 19 22 37 42
40 45 3 3 42 52 88 108 106 135 240 337 300 456 90 176 83 97 83 1049 -1 463
-1 853 -1 867 l-1 25 -1276 0 c-702 0 -1278 -4 -1281 -8z m2103 -815 c74 -187
136 -353 139 -368 5 -26 -1 -33 -47 -66 -75 -52 -512 -369 -520 -377 -4 -3
-10 -28 -13 -56 -36 -292 -209 -491 -481 -555 -278 -65 -587 77 -716 329 -187
366 6 817 392 917 88 23 193 22 326 -2 27 -5 43 3 111 53 43 32 115 84 159
116 43 31 174 126 289 211 116 84 214 150 218 146 5 -4 69 -160 143 -348z"/>
<path d="M4005 4331 c-27 -21 -69 -51 -91 -67 -90 -63 -319 -229 -324 -234
-13 -16 -100 -70 -112 -70 -7 0 -25 6 -40 14 -46 24 -151 45 -208 42 -222 -14
-392 -231 -351 -450 21 -112 93 -217 187 -272 124 -73 300 -65 415 18 118 85
169 195 163 349 l-3 86 259 188 c143 103 260 191 260 195 0 15 -92 240 -98
240 -4 0 -29 -18 -57 -39z m-785 -666 c29 -15 70 -79 70 -109 0 -9 -7 -33 -15
-54 -19 -46 -74 -81 -120 -77 -16 2 -34 3 -40 4 -15 2 -60 43 -73 68 -17 31
-15 90 4 122 34 58 112 78 174 46z"/>
</g>
</svg>
